# xmcd
#
# Track frame offsets:
#	150
#	17114
#	33079
#	44348
#	60041
#	75837
#	90938
#	110168
#	124547
#	136314
#
# Disc length: 2037 seconds
#
# Revision: 0
# Processed by: cddbd v1.5.2PL0 Copyright (c) Steve Scherf et al.
# Submitted via: dBpowerAMP V4.0
#
DISCID=6807f30a
DTITLE=Glen Campbell - Meet Glen Campbell
DYEAR=1900
DGENRE=
TTITLE0=Sing
TTITLE1=Walls
TTITLE2=Angel Dream
TTITLE3=Times Like These
TTITLE4=These Days
TTITLE5=Sadly Beautiful
TTITLE6=All I want is you
TTITLE7=Jesus
TTITLE8=Good Riddance (Time of Your Life)
TTITLE9=Grow Old With Me
EXTD=
EXTT0=
EXTT1=
EXTT2=
EXTT3=
EXTT4=
EXTT5=
EXTT6=
EXTT7=
EXTT8=
EXTT9=
PLAYORDER=
